<svg xmlns="http://www.w3.org/2000/svg"  viewBox="0 0 80 80" width="160px" height="160px"><path fill="#ffeea3" d="M21 2.5A6.5 6.5 0 1 0 21 15.5A6.5 6.5 0 1 0 21 2.5Z"/><path fill="#ba9b48" d="M21,3c3.308,0,6,2.692,6,6s-2.692,6-6,6s-6-2.692-6-6S17.692,3,21,3 M21,2c-3.866,0-7,3.134-7,7 c0,3.866,3.134,7,7,7s7-3.134,7-7C28,5.134,24.866,2,21,2L21,2z"/><path fill="#ffeea3" d="M39.844,48.562c-1.072,0-2.056-0.584-2.567-1.524l-1.344-2.469l5.129-2.791l1.343,2.47 c0.77,1.414,0.245,3.19-1.169,3.959C40.808,48.438,40.326,48.562,39.844,48.562z"/><path fill="#ba9b48" d="M40.861,42.456l1.104,2.03c0.637,1.172,0.203,2.644-0.969,3.281 c-0.354,0.193-0.753,0.295-1.153,0.295c-0.889,0-1.704-0.484-2.128-1.264l-1.104-2.03L40.861,42.456 M41.262,41.1l-6.007,3.268 l1.582,2.908c0.62,1.14,1.794,1.786,3.007,1.786c0.552,0,1.112-0.134,1.631-0.416c1.659-0.902,2.272-2.979,1.37-4.638L41.262,41.1 L41.262,41.1z"/><path fill="#ffeea3" d="M12,53.5c-1.93,0-3.5-1.57-3.5-3.5v-6.167h7V50C15.5,51.93,13.93,53.5,12,53.5z"/><path fill="#ba9b48" d="M15,44.333V50c0,1.654-1.346,3-3,3s-3-1.346-3-3v-5.667H15 M16,43.333H8V50c0,2.209,1.791,4,4,4 s4-1.791,4-4V43.333L16,43.333z"/><path fill="#8bb7f0" d="M26,77.5c-1.93,0-3.5-1.57-3.5-3.5V53.5h-3V74c0,1.93-1.57,3.5-3.5,3.5s-3.5-1.57-3.5-3.5V50.743 l-4-2.857V31c0-6.893,5.607-12.5,12.5-12.5c4.832,0,9.144,2.714,11.251,7.081l9.318,17.13l-5.129,2.79L29.5,32.744V74 C29.5,75.93,27.93,77.5,26,77.5z"/><path fill="#4e7ab5" d="M21,19c4.638,0,8.777,2.605,10.823,6.842l9.068,16.668l-4.25,2.312l-5.762-10.592L29,30.778v3.931 V46v8v20c0,1.654-1.346,3-3,3c-1.654,0-3-1.346-3-3V54v-1h-1h-2h-1v1v20c0,1.654-1.346,3-3,3c-1.654,0-3-1.346-3-3V54v-3v-0.515 l-0.419-0.299L9,47.628V31C9,24.383,14.383,19,21,19 M21,18c-7.18,0-13,5.82-13,13v17.143L12,51v3v20c0,2.209,1.791,4,4,4 s4-1.791,4-4V54h2v20c0,2.209,1.791,4,4,4s4-1.791,4-4V54v-8V34.709l6.24,11.47l6.007-3.268l-9.546-17.547 C30.6,21.011,26.158,18,21,18L21,18z"/><g><path fill="#ffeea3" d="M59 2.5A6.5 6.5 0 1 0 59 15.5A6.5 6.5 0 1 0 59 2.5Z"/><path fill="#ba9b48" d="M59,3c3.308,0,6,2.692,6,6s-2.692,6-6,6s-6-2.692-6-6S55.692,3,59,3 M59,2c-3.866,0-7,3.134-7,7 c0,3.866,3.134,7,7,7s7-3.134,7-7C66,5.134,62.866,2,59,2L59,2z"/></g><g><path fill="#ffeea3" d="M40.156,48.562c-0.482,0-0.964-0.123-1.392-0.355c-1.414-0.769-1.938-2.545-1.169-3.959l1.343-2.47 l5.129,2.791l-1.344,2.469C42.212,47.978,41.229,48.562,40.156,48.562L40.156,48.562z"/><path fill="#ba9b48" d="M39.139,42.456l4.25,2.312l-1.104,2.03c-0.424,0.78-1.24,1.264-2.128,1.264 c-0.4,0-0.799-0.102-1.153-0.295c-1.172-0.637-1.606-2.109-0.969-3.281L39.139,42.456 M38.738,41.1l-1.582,2.908 c-0.902,1.659-0.289,3.735,1.37,4.638c0.519,0.282,1.079,0.416,1.631,0.416c1.212,0,2.386-0.646,3.007-1.786l1.582-2.908 L38.738,41.1L38.738,41.1z"/></g><g><path fill="#ffeea3" d="M68,53.5c-1.93,0-3.5-1.57-3.5-3.5v-6.167h7V50C71.5,51.93,69.93,53.5,68,53.5z"/><path fill="#ba9b48" d="M71,44.333V50c0,1.654-1.346,3-3,3s-3-1.346-3-3v-5.667H71 M72,43.333h-8V50c0,2.209,1.791,4,4,4 s4-1.791,4-4V43.333L72,43.333z"/></g><g><path fill="#bae0bd" d="M64,77.5c-1.93,0-3.5-1.57-3.5-3.5V53.5h-3V74c0,1.93-1.57,3.5-3.5,3.5s-3.5-1.57-3.5-3.5V32.744 l-6.94,12.757l-5.129-2.79l9.308-17.107C49.856,21.214,54.168,18.5,59,18.5c6.893,0,12.5,5.607,12.5,12.5v16.886l-4,2.857V74 C67.5,75.93,65.93,77.5,64,77.5z"/><path fill="#5e9c76" d="M59,19c6.617,0,12,5.383,12,12v16.628l-3.581,2.558L67,50.485V51v3v20c0,1.654-1.346,3-3,3 c-1.654,0-3-1.346-3-3V54v-1h-1h-2h-1v1v20c0,1.654-1.346,3-3,3c-1.654,0-3-1.346-3-3V54v-8V34.709v-3.931l-1.878,3.453 l-5.762,10.592l-4.25-2.312l9.09-16.711C50.223,21.605,54.362,19,59,19 M59,18c-5.158,0-9.6,3.011-11.701,7.364l-9.546,17.547 l6.007,3.268L50,34.709V46v8v20c0,2.209,1.791,4,4,4s4-1.791,4-4V54h2v20c0,2.209,1.791,4,4,4s4-1.791,4-4V54v-3l4-2.857V31 C72,23.82,66.18,18,59,18L59,18z"/></g></svg>