<svg xmlns="http://www.w3.org/2000/svg"  viewBox="0 0 40 40" width="160px" height="160px"><path fill="#f5ce85" d="M14,11.5c-3.033,0-5.5-2.467-5.5-5.5s2.467-5.5,5.5-5.5c1.952,0,3.775,1.054,4.758,2.75l0.145,0.25 h2.89L23,4.707L24.207,3.5h1.586L27,4.707L28.207,3.5h1.586L31.5,5.207v1.586L29.793,8.5h-10.89l-0.145,0.25 C17.775,10.446,15.952,11.5,14,11.5z M12,4.5c-0.827,0-1.5,0.673-1.5,1.5s0.673,1.5,1.5,1.5s1.5-0.673,1.5-1.5S12.827,4.5,12,4.5z"/><path fill="#967a44" d="M14,1c1.774,0,3.432,0.958,4.325,2.501L18.614,4h0.576h2.395l0.707,0.707L23,5.414l0.707-0.707 L24.414,4h1.172l0.707,0.707L27,5.414l0.707-0.707L28.414,4h1.172L31,5.414v1.172L29.586,8H19.191h-0.576l-0.289,0.499 C17.432,10.042,15.774,11,14,11c-2.757,0-5-2.243-5-5S11.243,1,14,1 M12,8c1.103,0,2-0.897,2-2s-0.897-2-2-2s-2,0.897-2,2 S10.897,8,12,8 M14,0c-3.314,0-6,2.686-6,6s2.686,6,6,6c2.22,0,4.153-1.208,5.191-3H30l2-2V5l-2-2h-2l-1,1l-1-1h-2l-1,1l-1-1 h-2.809C18.153,1.208,16.22,0,14,0L14,0z M12,7c-0.552,0-1-0.448-1-1c0-0.552,0.448-1,1-1s1,0.448,1,1C13,6.552,12.552,7,12,7 L12,7z"/><path fill="#8bb7f0" d="M5,25.5c-0.827,0-1.5-0.673-1.5-1.5s0.673-1.5,1.5-1.5h30c0.827,0,1.5,0.673,1.5,1.5 s-0.673,1.5-1.5,1.5H5z"/><path fill="#4e7ab5" d="M35,23c0.551,0,1,0.449,1,1s-0.449,1-1,1H5c-0.551,0-1-0.449-1-1s0.449-1,1-1H35 M35,22H5 c-1.105,0-2,0.895-2,2s0.895,2,2,2h30c1.105,0,2-0.895,2-2S36.105,22,35,22L35,22z"/><path fill="#66798f" d="M35 32.75v5c0 .69-.56 1.25-1.25 1.25h-2.5C30.56 39 30 38.44 30 37.75v-5c0-.69.56-1.25 1.25-1.25h2.5C34.44 31.5 35 32.06 35 32.75zM10 32.75v5C10 38.44 9.44 39 8.75 39h-2.5C5.56 39 5 38.44 5 37.75v-5c0-.69.56-1.25 1.25-1.25h2.5C9.44 31.5 10 32.06 10 32.75z"/><path fill="#8bb7f0" d="M8,36.5c-1.378,0-2.5-1.122-2.5-2.5v-6.052c0-1.168,0.363-2.285,1.049-3.231l0.465-0.64l1.718-6.92 c0.388-1.564,1.785-2.657,3.397-2.657h15.743c1.612,0,3.009,1.092,3.397,2.657l1.718,6.92l0.465,0.64 c0.686,0.945,1.048,2.062,1.048,3.23V34c0,1.378-1.122,2.5-2.5,2.5H8z"/><path fill="#4e7ab5" d="M27.872,15c1.381,0,2.579,0.936,2.912,2.277l1.695,6.826l0.047,0.189l0.114,0.158l0.408,0.562 C33.67,25.87,34,26.886,34,27.948V34c0,1.103-0.897,2-2,2H8c-1.103,0-2-0.897-2-2v-6.052c0-1.062,0.33-2.078,0.954-2.937 l0.407-0.561l0.114-0.158l0.047-0.189l1.695-6.826C9.55,15.936,10.747,15,12.128,15H27.872 M27.872,14H12.128 c-1.838,0-3.439,1.252-3.882,3.036l-1.695,6.826l-0.407,0.561C5.401,25.448,5,26.682,5,27.948V34c0,1.657,1.343,3,3,3h24 c1.657,0,3-1.343,3-3v-6.052c0-1.266-0.401-2.5-1.144-3.524l-0.407-0.561l-1.695-6.826C31.311,15.252,29.71,14,27.872,14 L27.872,14z"/><path fill="#fff" d="M31 27A2 2 0 1 0 31 31 2 2 0 1 0 31 27zM9 27A2 2 0 1 0 9 31 2 2 0 1 0 9 27z"/><g><path fill="#c8d1db" d="M12.726,36.5l1.672-4.39c0.367-0.963,1.306-1.61,2.336-1.61h6.532c1.03,0,1.969,0.647,2.336,1.61 l1.672,4.39H12.726z"/><path fill="#66798f" d="M23.266,31c0.824,0,1.576,0.518,1.869,1.288L26.549,36H13.451l1.414-3.712 C15.159,31.518,15.91,31,16.734,31H23.266 M23.266,30h-6.532c-1.245,0-2.36,0.769-2.803,1.932L12,37h16l-1.931-5.068 C25.626,30.769,24.511,30,23.266,30L23.266,30z"/></g><path fill="#8bb7f0" d="M5 23H35V25H5z"/><g><path fill="#c2e8ff" d="M7.405,22.5l1.327-5.343c0.388-1.564,1.785-2.657,3.397-2.657h15.743 c1.612,0,3.009,1.092,3.397,2.657l1.327,5.343H7.405z"/><path fill="#4e7ab5" d="M27.872,15c1.381,0,2.579,0.936,2.912,2.277L31.956,22H8.044l1.172-4.723 C9.55,15.936,10.747,15,12.128,15H27.872 M27.872,14H12.128c-1.838,0-3.439,1.252-3.882,3.036L6.766,23h26.469l-1.481-5.964 C31.311,15.252,29.71,14,27.872,14L27.872,14z"/></g></svg>