<svg xmlns="http://www.w3.org/2000/svg"  viewBox="0 0 40 40" width="160px" height="160px"><path fill="none" stroke="#36404d" stroke-miterlimit="10" d="M11.893 20.214L13.25 17.5 18 17.5"/><path fill="#a1b1bd" d="M3.003,38.5c-0.466,0-0.896-0.21-1.184-0.577c-0.287-0.367-0.387-0.837-0.273-1.29l1.852-7.406 l-0.802-5.594l4.139,0.848l0.115,4.595l-2.402,8.337C4.263,38.053,3.669,38.5,3.003,38.5z"/><path fill="#788b9c" d="M3.192,24.266l3.053,0.626l0.103,4.12l-2.382,8.264C3.844,37.702,3.448,38,3.003,38 c-0.311,0-0.599-0.141-0.79-0.386s-0.258-0.558-0.182-0.86l1.828-7.311l0.048-0.19l-0.028-0.194L3.192,24.266 M2,23.001l0.889,6.2 l-1.828,7.311C0.745,37.776,1.701,39,3.003,39c0.892,0,1.677-0.59,1.924-1.448l2.424-8.412l-0.127-5.069L2,23.001L2,23.001z"/><path fill="#b6c9d6" d="M9.618,38.5c-0.727,0-1.363-0.49-1.549-1.192l-2.564-9.684l-0.417-0.194 C3.516,26.701,2.5,25.111,2.5,23.38V14c0-1.93,1.57-3.5,3.5-3.5s3.5,1.57,3.5,3.5v4.5H15c0.827,0,1.5,0.673,1.5,1.5 s-0.673,1.5-1.5,1.5H9.5V23l1.709,13.699c0.057,0.456-0.085,0.915-0.39,1.259C10.516,38.303,10.077,38.5,9.618,38.5z"/><path fill="#788b9c" d="M6,11c1.654,0,3,1.346,3,3v4v1h1h5c0.551,0,1,0.449,1,1s-0.449,1-1,1h-5H9v1v1v0.062l0.008,0.062 l1.705,13.637c0.04,0.318-0.055,0.626-0.267,0.866S9.939,38,9.618,38c-0.5,0-0.938-0.337-1.066-0.82l-2.504-9.458l-0.12-0.454 L5.502,27.07l-0.206-0.095C3.902,26.329,3,24.917,3,23.38V14C3,12.346,4.346,11,6,11 M6,10c-2.209,0-4,1.791-4,4v9.38 c0,1.933,1.123,3.69,2.877,4.503l0.206,0.095l2.504,9.458C7.83,38.358,8.664,39,9.618,39c1.265,0,2.243-1.108,2.086-2.363L10,23 v-1h5c1.105,0,2-0.895,2-2c0-1.105-0.895-2-2-2h-5v-4C10,11.791,8.209,10,6,10L6,10z"/><path fill="#f5ce85" d="M19.5,7.5V5c0-0.827,0.673-1.5,1.5-1.5s1.5,0.673,1.5,1.5v2.5H19.5z"/><path fill="#967a44" d="M21,4c0.551,0,1,0.449,1,1v2h-2V5C20,4.449,20.449,4,21,4 M21,3c-1.105,0-2,0.895-2,2v3h4V5 C23,3.895,22.105,3,21,3L21,3z"/><path fill="#f5ce85" d="M35.5,7.5V5c0-0.827,0.673-1.5,1.5-1.5s1.5,0.673,1.5,1.5v2.5H35.5z"/><path fill="#967a44" d="M37,4c0.551,0,1,0.449,1,1v2h-2V5C36,4.449,36.449,4,37,4 M37,3c-1.105,0-2,0.895-2,2v3h4V5 C39,3.895,38.105,3,37,3L37,3z"/><path fill="#f5ce85" d="M29 2.5A3.5 3.5 0 1 0 29 9.5A3.5 3.5 0 1 0 29 2.5Z"/><path fill="#967a44" d="M29,3c1.654,0,3,1.346,3,3s-1.346,3-3,3s-3-1.346-3-3S27.346,3,29,3 M29,2c-2.209,0-4,1.791-4,4 s1.791,4,4,4s4-1.791,4-4S31.209,2,29,2L29,2z"/><path fill="#f5ce85" d="M6 1.5A3.5 3.5 0 1 0 6 8.5A3.5 3.5 0 1 0 6 1.5Z"/><path fill="#967a44" d="M6,2c1.654,0,3,1.346,3,3S7.654,8,6,8S3,6.654,3,5S4.346,2,6,2 M6,1C3.791,1,2,2.791,2,5 s1.791,4,4,4s4-1.791,4-4S8.209,1,6,1L6,1z"/><path fill="#8bb7f0" d="M23.5,20.5v-6H22c-1.379,0-2.5-1.122-2.5-2.5V6.5h3v5h13v-5h3V12c0,1.378-1.121,2.5-2.5,2.5h-1.5v6 H23.5z"/><path fill="#4e7ab5" d="M38,7v5c0,1.103-0.897,2-2,2h-1h-1v1v5H24v-5v-1h-1h-1c-1.103,0-2-0.897-2-2V7h2v4v1h1h12h1v-1V7 H38 M39,6h-4v5H23V6h-4v6c0,1.657,1.343,3,3,3h1v6h12v-6h1c1.657,0,3-1.343,3-3V6L39,6z"/><g><path fill="#b6c9d6" d="M7 21H10V23H7z"/></g><path fill="none" stroke="#788b9c" stroke-linecap="round" stroke-linejoin="round" stroke-miterlimit="10" d="M6.5,16.071V19.5	c0,1.105,0.895,2,2,2H12"/><g><path fill="#fff" d="M29 19L26 12 32 12z"/></g><g><path fill="#4e7ab5" d="M27.75 12L28.5 13 27.887 16.402 29 19 30.113 16.403 29.5 13 30.25 12 29 11z"/></g><g><path fill="#f5ce85" d="M20.5 20.5H38.5V23.5H20.5z"/><path fill="#967a44" d="M38,21v2H21v-2H38 M39,20H20v4h19V20L39,20z"/></g><g><path fill="#f5ce85" d="M21.5 23.5H38.5V38.5H21.5z"/><path fill="#967a44" d="M38,24v14H22V24H38 M39,23H21v16h18V23L39,23z"/></g></svg>