<svg xmlns="http://www.w3.org/2000/svg"  viewBox="0 0 512 512" width="160px" height="160px"><path fill="#ffd8b7" d="M164.22,179H136V125.14c0-8.23-6.19-15.14-14.43-15.14h-.01c-8.24,0-14.56,6.91-14.56,15.14v1.07A15.081,15.081,0,0,0,91.875,111.3,14.866,14.866,0,0,0,77,126.21v8.96a15.032,15.032,0,0,0-25.628-10.54A14.869,14.869,0,0,0,47,135.17v9.59a15,15,0,0,0-30,0v74.67a175.7,175.7,0,0,0,9.87,58.045L31.94,292l2.3,36-5.07,74H143V328l6.84-36a64.627,64.627,0,0,1,19.24-46.435l8.13-7.918A26.011,26.011,0,0,0,185,219.43V199.45C185,188.26,175.43,179,164.22,179Z"/><path fill="#eac3a7" d="M61.94,292l-5.07-14.525A175.7,175.7,0,0,1,47,219.43V144.76a15,15,0,0,0-30,0v74.67a175.7,175.7,0,0,0,9.87,58.045L31.94,292l2.3,36-5.07,74h30l5.07-74Z"/><path fill="#ffd8b7" d="M480.06,129.85a15.039,15.039,0,0,0-10.62,4.37A14.852,14.852,0,0,0,465,144.76v-9.59a14.816,14.816,0,0,0-4.31-10.54A15.076,15.076,0,0,0,435,135.17v-8.96a14.734,14.734,0,0,0-4.255-10.55,15.2,15.2,0,0,0-10.683-4.36A15.027,15.027,0,0,0,405,126.21v-1.07c0-8.23-6.32-15.14-14.56-15.14h-.01c-8.24,0-15.43,6.91-15.43,15.14V179H347.78c-11.21,0-20.78,9.26-20.78,20.45v19.98a25.926,25.926,0,0,0,7.79,18.18l8.01,7.955A64.736,64.736,0,0,1,362.16,292L369,328v74H482.83l-5.07-74,2.3-36,5.07-14.525A175.7,175.7,0,0,0,495,219.43V144.76A14.922,14.922,0,0,0,480.06,129.85Z"/><path fill="#b0b5ca" d="M484.52,291.85H362a10.14,10.14,0,0,0-10.15,10.13v16.11A10.134,10.134,0,0,0,362,328.22H484.52a10.134,10.134,0,0,0,10.15-10.13V301.98A10.14,10.14,0,0,0,484.52,291.85Z"/><path fill="#b0b5ca" d="M150,291.85H27.48a10.14,10.14,0,0,0-10.15,10.13v16.11a10.134,10.134,0,0,0,10.15,10.13H150a10.134,10.134,0,0,0,10.15-10.13V301.98A10.14,10.14,0,0,0,150,291.85Z"/><path fill="#9398aa" d="M47.33,318.09V301.98a10.14,10.14,0,0,1,10.15-10.13h-30a10.14,10.14,0,0,0-10.15,10.13v16.11a10.134,10.134,0,0,0,10.15,10.13h30A10.134,10.134,0,0,1,47.33,318.09Z"/><path fill="#284268" d="M35,211.638a6,6,0,0,0,6-6V198.31a6,6,0,0,0-12,0v7.328A6,6,0,0,0,35,211.638Z"/><path fill="#284268" d="M42.83,277.225a6.005,6.005,0,0,0,5.734-7.776,169.206,169.206,0,0,1-7.449-43.779,6,6,0,0,0-11.992.443A181.244,181.244,0,0,0,37.1,273,6,6,0,0,0,42.83,277.225Z"/><path fill="#284268" d="M480.062,123.846a20.8,20.8,0,0,0-10.695,2.967,20.88,20.88,0,0,0-30.108-9.444,20.888,20.888,0,0,0-33.369-6.284,21.427,21.427,0,0,0-15.7-6.853A21.162,21.162,0,0,0,369,125.143V173H347.779C333.279,173,321,184.97,321,199.45v19.98a31.715,31.715,0,0,0,9.547,22.428l8.014,7.879a59.224,59.224,0,0,1,17.405,37.3A16.029,16.029,0,0,0,346,301.984v16.11a16.327,16.327,0,0,0,.194,2.39A116.333,116.333,0,0,1,334.772,332.9a14.045,14.045,0,0,0-19-4.584L293.2,341.677h0a14,14,0,0,0-5.525,18.053c-1.569.451-3.148.77-4.736,1.155A14.12,14.12,0,0,0,268.981,348H242.716a14.123,14.123,0,0,0-13.953,12.806c-1.487-.364-2.966-.7-4.436-1.127a13.841,13.841,0,0,0,1.016-9.435A14.608,14.608,0,0,0,219,341.665v.006l-22.676-13.357a14.1,14.1,0,0,0-19.047,4.585,117.252,117.252,0,0,1-11.467-12.444,16.22,16.22,0,0,0,.19-2.361v-16.11a16.082,16.082,0,0,0-10.027-14.946,59.108,59.108,0,0,1,17.308-37.3l8.153-7.879A31.734,31.734,0,0,0,191,219.43V199.45c0-14.48-12.279-26.45-26.779-26.45H143V125.143a21.172,21.172,0,0,0-36.766-14.058,20.978,20.978,0,0,0-33.462,6.284,20.9,20.9,0,0,0-30.131,9.444A20.905,20.905,0,0,0,11,144.757V219.43a180.729,180.729,0,0,0,10.208,59.954l2.272,6.948A16.3,16.3,0,0,0,11,301.984v16.11C11,326.988,18.571,334,27.475,334h.338l-4.632,67.243a6.4,6.4,0,0,0,1.6,4.679A6.176,6.176,0,0,0,29.167,408H143.236A6.007,6.007,0,0,0,149,401.768V334h1a16.09,16.09,0,0,0,9.1-2.778,127.969,127.969,0,0,0,11.845,12.218l-.529.887a14,14,0,0,0,4.91,19.209L197.9,376.9a14.045,14.045,0,0,0,19.209-4.9l1.119-1.629A97.416,97.416,0,0,0,229,373.2v1.922A13.66,13.66,0,0,0,242.716,389h26.265A13.917,13.917,0,0,0,283,375.12v-1.856a102.034,102.034,0,0,0,10.922-2.9l.967,1.628a14.044,14.044,0,0,0,19.209,4.9l22.577-13.36a14,14,0,0,0,4.912-19.209l-.528-.887a128.2,128.2,0,0,0,11.846-12.216A16.085,16.085,0,0,0,362,334h1v67.768A6.007,6.007,0,0,0,368.764,408H482.833a6.117,6.117,0,0,0,4.387-2.022,6.394,6.394,0,0,0,1.6-4.677L484.187,334h.338c8.9,0,16.475-7.012,16.475-15.906v-16.11a16.3,16.3,0,0,0-12.48-15.652l2.354-6.948A180.674,180.674,0,0,0,501,219.43V144.757A20.949,20.949,0,0,0,480.062,123.846ZM23,219.43V144.757a9,9,0,0,1,18,0v24.315a6,6,0,0,0,12,0v-33.9a9,9,0,0,1,18,0v33.9a6,6,0,0,0,12,0V126.208a9,9,0,0,1,18,0v42.864a6,6,0,0,0,12,0V125.143a9,9,0,0,1,18,0l-.205,61.8a39.55,39.55,0,0,0,26.652,35.539l.407.167a5.808,5.808,0,0,0,1.981.349,6,6,0,0,0,1.989-11.653l-.473-.167c-10.776-3.837-18.338-13.881-18.814-24.85-.018-.411-.026-.331-.029-1.331h21.713C172.1,185,179,191.587,179,199.45v19.98a19.8,19.8,0,0,1-6.025,13.935l-8.014,7.952A70.949,70.949,0,0,0,144.106,286H36.192l-3.661-10.513A169.227,169.227,0,0,1,23,219.43ZM137,396H35.6l4.246-62H137Zm13-74H27.475C25.188,322,23,320.371,23,318.094v-16.11c0-2.277,2.188-3.984,4.475-3.984H150a3.9,3.9,0,0,1,4,3.984v16.11A3.832,3.832,0,0,1,150,322Zm63.4,32.755-.581.978c-1.927-.785-3.843-1.6-5.731-2.492a6,6,0,1,0-5.118,10.853q2.287,1.079,4.612,2.06a2.034,2.034,0,0,1-2.567.415l-22.576-13.36a2,2,0,0,1-.927-1.234,2.064,2.064,0,0,1-.035-.764c.753.558,1.5,1.125,2.266,1.667a6,6,0,1,0,6.927-9.8c-1.072-.758-2.124-1.54-3.168-2.332l.831-1.4a2.036,2.036,0,0,1,2.783-.705L212.691,352a2,2,0,0,1,.707,2.751ZM271,363.2c-1,.107-1.619.231-2.434.322a6,6,0,0,0,.657,11.963,5.873,5.873,0,0,0,.672-.038c.364-.04.723-.169,1.087-.213a1.957,1.957,0,0,1-2,1.768H242.716a1.957,1.957,0,0,1-2-1.809c.465.057.927.168,1.394.22a6.167,6.167,0,0,0,.672.055,5.994,5.994,0,0,0,5.956-5.328,5.884,5.884,0,0,0-5.147-6.623c-.917-.1-1.586-.234-2.586-.358v-.935c0-1.114.6-2.222,1.716-2.222h26.265A2.2,2.2,0,0,1,271,362.222Zm60.49-11.223a2,2,0,0,1-.926,1.234l-22.577,13.36a2.036,2.036,0,0,1-2.567-.415q2.322-.986,4.612-2.06a6,6,0,1,0-5.118-10.853c-1.888.89-3.8,1.707-5.731,2.492l-.581-.978a2,2,0,0,1,.707-2.751l22.577-13.359a2.035,2.035,0,0,1,2.783.706l.831,1.4c-1.044.791-2.1,1.573-3.168,2.331a6,6,0,1,0,6.927,9.8c.767-.542,1.513-1.109,2.266-1.667A2.064,2.064,0,0,1,331.49,351.975ZM375,396V334h97.159l4.246,62Zm114-94.016v16.11c0,2.277-2.188,3.906-4.475,3.906H362a3.832,3.832,0,0,1-4-3.906v-16.11A3.9,3.9,0,0,1,362,298H484.525C486.812,298,489,299.707,489,301.984Zm0-82.554a169.227,169.227,0,0,1-9.531,56.057L475.808,286H367.894a70.811,70.811,0,0,0-20.734-44.683l-8.135-7.916A19.878,19.878,0,0,1,333,219.43V199.45c0-7.863,6.9-14.45,14.779-14.45h21.713c0,1-.009.92-.027,1.33-.476,10.97-8.036,20.966-18.812,24.8l-.469.191a6.009,6.009,0,1,0,4.024,11.325l.47-.165a39.429,39.429,0,0,0,26.527-35.539l-.2-61.8a9,9,0,0,1,18,0v43.929a6,6,0,0,0,12,0V126.208a9,9,0,0,1,18,0v42.864a6,6,0,0,0,12,0v-33.9a9,9,0,0,1,18,0v33.9a6,6,0,0,0,12,0V144.757a9,9,0,0,1,18,0Z"/></svg>