<svg xmlns="http://www.w3.org/2000/svg"  viewBox="0 0 512 512" width="160px" height="160px"><g data-name="FILLED OUTLINE"><rect width="368" height="464" x="72" y="24" fill="#53a5d3" rx="16"/><path fill="#f4e7dc" d="M363.68552,419.68551,288,344h0a24,24,0,0,0,24-24V304a24,24,0,0,0-24-24H218.59635a15.99957,15.99957,0,0,0-5.05948.821l-67.06763,22.356a16.006,16.006,0,0,1-5.072.821L16,303.90222v104L160,408l75.68551,75.68552c6.7262,6.7262,17.94259,6.93408,24.54161.08306A16.9706,16.9706,0,0,0,260,460l15.68551,15.68552c6.7262,6.7262,17.94259,6.93409,24.54161.08306A16.9706,16.9706,0,0,0,300,452l7.68551,7.68552c6.7262,6.7262,17.94259,6.93409,24.54161.08306A16.9706,16.9706,0,0,0,332,436l8,8a16.9706,16.9706,0,0,0,23.76858.22712C370.6196,437.6281,370.41172,426.41171,363.68552,419.68551Z"/><path fill="#e2d2c3" d="M394.81885,304.09777a16.00091,16.00091,0,0,1-5.468-.96338l-54.0144-19.6416a58.00025,58.00025,0,0,0-56.95191,9.95117l-51.428,42.85669a22.53429,22.53429,0,0,0-1.508,33.2456h.00024a22.534,22.534,0,0,0,30.36035,1.3772L288,344.09777l72,72h30.262a31.99952,31.99952,0,0,0,17.82544-5.42456l11.8689-7.96094A16.00011,16.00011,0,0,1,428.86914,400H496V304.09777Z"/><path fill="#e8d6ba" d="M308,372.49979h0A8.00017,8.00017,0,0,1,316.00018,380.5v63.19561A8.00018,8.00018,0,0,1,308,451.69575h0a8.00018,8.00018,0,0,1-8.00018-8.00018V380.5A8.00017,8.00017,0,0,1,308,372.49979Z" transform="rotate(-45 308 412.098)"/><rect width="16" height="39.598" x="247.951" y="436.25" fill="#e8d6ba" rx="8" transform="rotate(-45 255.951 456.049)"/><path fill="#e8d6ba" d="M284.29431,410.93624h0a8.00017,8.00017,0,0,1,8.00017,8.00017v34.91134a8.00018,8.00018,0,0,1-8.00018,8.00018h0a8.00018,8.00018,0,0,1-8.00018-8.00018V418.93641A8.00017,8.00017,0,0,1,284.29431,410.93624Z" transform="rotate(-45 284.294 436.392)"/><path fill="#dbc7b2" d="M323.75781,366.92785A58.431,58.431,0,0,1,289.3617,355.7563a7.99572,7.99572,0,0,1-.91155-12.10865h0a8.04867,8.04867,0,0,1,10.43188-.75524,42.51737,42.51737,0,0,0,51.45877-1.31221h0a5.9701,5.9701,0,0,1,8.39145.93273l2.53546,3.1697a5.97047,5.97047,0,0,1-.93276,8.39171h0A58.4054,58.4054,0,0,1,323.75781,366.92785Z"/><path fill="#e2d2c3" d="M196,460.09778l24-24a16.97055,16.97055,0,0,0,0-24l0,0a16.97055,16.97055,0,0,0-24,0l-24,24a16.97055,16.97055,0,0,0,0,24l0,0a16.97055,16.97055,0,0,0,24,0"/><path fill="#e2d2c3" d="M155.02942,395.12721h33.94116a16.97055,16.97055,0,0,1,16.97055,16.97055v0a16.97055,16.97055,0,0,1-16.97055,16.97055H155.02942a16.97054,16.97054,0,0,1-16.97054-16.97054v0a16.97055,16.97055,0,0,1,16.97055-16.97055Z" transform="rotate(-45 172 412.098)"/><path fill="#e2d2c3" d="M244,436.09777a16.97052,16.97052,0,0,0-24,0l-16,16a16.97056,16.97056,0,0,0,24,24l16-16A16.97052,16.97052,0,0,0,244,436.09777Z"/><path fill="#e2d2c3" d="M164,372.09777a16.97052,16.97052,0,0,0-24,0l-16,16a16.97056,16.97056,0,0,0,24,24l16-16A16.97052,16.97052,0,0,0,164,372.09777Z"/><rect width="33.941" height="16" x="167.029" y="416.098" fill="#dbc7b2" rx="8" transform="rotate(-45.002 184 424.098)"/><rect width="33.941" height="16" x="191.029" y="440.098" fill="#dbc7b2" rx="8" transform="rotate(-45.002 208 448.098)"/><path fill="#dbc7b2" d="M151.02961,392.09759h17.94078a8.00018,8.00018,0,0,1,8.00018,8.00018v0a8.00017,8.00017,0,0,1-8.00017,8.00017H151.02961a8.00017,8.00017,0,0,1-8.00017-8.00017v0a8.00017,8.00017,0,0,1,8.00017-8.00017Z" transform="rotate(-45.002 160 400.098)"/><rect width="96" height="16" x="104" y="208" fill="#3c8dbf"/><rect width="40" height="16" x="128" y="240" fill="#3c8dbf"/><rect width="96" height="16" x="312" y="208" fill="#3c8dbf"/><rect width="40" height="16" x="336" y="240" fill="#3c8dbf"/><rect width="112" height="16" x="200" y="56" fill="#76c6e5"/><rect width="304" height="16" x="104" y="96" fill="#76c6e5"/><rect width="304" height="16" x="104" y="128" fill="#76c6e5"/><rect width="168" height="16" x="104" y="160" fill="#76c6e5"/><path d="M232.07812,342.34863l51.42872-42.85693a50.15822,50.15822,0,0,1,49.09472-8.57813l54.01563,19.64161A23.9295,23.9295,0,0,0,394.81836,312H496V296H448V40a24.02718,24.02718,0,0,0-24-24H88A24.02718,24.02718,0,0,0,64,40V295.939l-47.99414-.03662-.01172,16,125.39648.09571h.02051a23.92257,23.92257,0,0,0,7.58692-1.23194l67.07031-22.356A7.98483,7.98483,0,0,1,218.59668,288H272.304l-50.468,42.05713a30.53409,30.53409,0,1,0,39.09375,46.91455L287.509,354.823l70.83374,70.83374a8.97038,8.97038,0,1,1-12.68554,12.68652l-8-8-52-52-11.31446,11.31348,52,52a8.97038,8.97038,0,1,1-12.68554,12.68652l-8-8-36-36-11.31446,11.31348,36,36a8.97038,8.97038,0,1,1-12.68554,12.68652l-16-16-8.82276-8.82275a24.93341,24.93341,0,0,0-23.89819-22.46839,24.93,24.93,0,0,0-24-24,24.97914,24.97914,0,0,0-33.157-22.63989,24.96146,24.96146,0,0,0-41.43653-10.069l-16,16a24.89241,24.89241,0,0,0-7.30127,17.64832l-95.03369-.08924-.01562,16L64,415.94751V472a24.02718,24.02718,0,0,0,24,24h80V480H88a8.00917,8.00917,0,0,1-8-8V415.9624l36.83252.03467c.47583.56921.97583,1.12512,1.51025,1.65967a24.78956,24.78956,0,0,0,16.72095,7.29114,24.93,24.93,0,0,0,24,24,24.97914,24.97914,0,0,0,33.157,22.63989,24.97347,24.97347,0,0,0,34.853,14.7998l3.269,3.26917a24.95645,24.95645,0,0,0,40.481-7.54187,24.94649,24.94649,0,0,0,40.95557-10.5271,24.95607,24.95607,0,0,0,32-16A24.97147,24.97147,0,0,0,375.64648,424h14.61524a39.863,39.863,0,0,0,22.28125-6.78027l11.86816-7.96094a7.97971,7.97971,0,0,1,4.458-1.35645H432V472a8.00917,8.00917,0,0,1-8,8H344v16h80a24.02718,24.02718,0,0,0,24-24V407.90234h48v-16H428.86914A23.92589,23.92589,0,0,0,415.5,395.97021l-11.87012,7.96192A23.91571,23.91571,0,0,1,390.26172,408H363.314L322.113,366.79907A58.39889,58.39889,0,0,0,360.335,353.97656l4.66211-3.72949-9.99414-12.49414-4.66211,3.72949a42.517,42.517,0,0,1-56.68359-3.13916l-5.166-5.166-37.80469,31.50293a14.53419,14.53419,0,0,1-18.6084-22.33155ZM218.59668,272a23.93475,23.93475,0,0,0-7.58887,1.23193l-67.07129,22.356a7.95493,7.95493,0,0,1-2.52636.41016h-.00684L80,295.95117V40a8.00917,8.00917,0,0,1,8-8H424a8.00917,8.00917,0,0,1,8,8V296H394.81836a7.97122,7.97122,0,0,1-2.7334-.48193l-54.01465-19.64161A65.822,65.822,0,0,0,312,272.0332V272ZM136,408.9707a8.9707,8.9707,0,0,1-6.34277-15.314l16-16a8.97038,8.97038,0,0,1,12.68554,12.68652l-16,16A8.91031,8.91031,0,0,1,136,408.9707Zm24,24a8.9707,8.9707,0,0,1-6.34277-15.314l16-16,8-8a8.97038,8.97038,0,0,1,12.68554,12.68652l-24,24A8.91031,8.91031,0,0,1,160,432.9707Zm30.34277,21.37256a8.97038,8.97038,0,0,1-12.68554-12.68652l24-24a8.97038,8.97038,0,0,1,12.68554,12.68652l-16,16Zm32,16a8.97038,8.97038,0,0,1-12.68554-12.68652l16-16a8.97038,8.97038,0,0,1,12.68554,12.68652Zm32,8a8.9696,8.9696,0,0,1-12.68554,0L239.314,476l10.34327-10.34326a25.06905,25.06905,0,0,0,2.18261-2.50293l2.50293,2.50293A8.98022,8.98022,0,0,1,254.34277,478.34326Z"/><rect width="96" height="16" x="104" y="208"/><rect width="40" height="16" x="128" y="240"/><rect width="96" height="16" x="312" y="208"/><rect width="40" height="16" x="336" y="240"/><rect width="112" height="16" x="200" y="56"/><rect width="304" height="16" x="104" y="96"/><rect width="304" height="16" x="104" y="128"/><rect width="168" height="16" x="104" y="160"/></g></svg>