<?xml version="1.0" encoding="UTF-8"?>
<svg version="1.1" xmlns="http://www.w3.org/2000/svg" width="96" height="96">
<path d="M0 0 C0.66 0 1.32 0 2 0 C2 3.96 2 7.92 2 12 C4.31 12 6.62 12 9 12 C8.67 13.98 8.34 15.96 8 18 C9.32 18 10.64 18 12 18 C11.85962479 19.81293089 11.71255111 21.6253443 11.5625 23.4375 C11.48128906 24.44683594 11.40007813 25.45617187 11.31640625 26.49609375 C11 29 11 29 10 30 C8.02 30 6.04 30 4 30 C4 35.28 4 40.56 4 46 C25.12 46 46.24 46 68 46 C68 47.32 68 48.64 68 50 C66.68 50 65.36 50 64 50 C64 57.26 64 64.52 64 72 C65.32 72 66.64 72 68 72 C68 73.32 68 74.64 68 76 C40.28 76 12.56 76 -16 76 C-16 74.68 -16 73.36 -16 72 C-14.68 72 -13.36 72 -12 72 C-12 64.74 -12 57.48 -12 50 C-13.32 50 -14.64 50 -16 50 C-16 48.68 -16 47.36 -16 46 C-11.38 46 -6.76 46 -2 46 C-2 40.72 -2 35.44 -2 30 C-3.98 30 -5.96 30 -8 30 C-9.59138085 25.82262526 -10.21278058 22.46839215 -10 18 C-8.68 18 -7.36 18 -6 18 C-6.33 16.02 -6.66 14.04 -7 12 C-4.69 12 -2.38 12 0 12 C0 8.04 0 4.08 0 0 Z " fill="#80D4FA" transform="translate(22,10)"/>
<path d="M0 0 C13.2 0 26.4 0 40 0 C40 7.26 40 14.52 40 22 C26.8 22 13.6 22 0 22 C0 14.74 0 7.48 0 0 Z " fill="#8CD8F9" transform="translate(10,60)"/>
<path d="M0 0 C0.66 0 1.32 0 2 0 C2 3.96 2 7.92 2 12 C4.31 12 6.62 12 9 12 C8.67 13.98 8.34 15.96 8 18 C9.32 18 10.64 18 12 18 C11.85962479 19.81293089 11.71255111 21.6253443 11.5625 23.4375 C11.48128906 24.44683594 11.40007813 25.45617187 11.31640625 26.49609375 C11 29 11 29 10 30 C8.02 30 6.04 30 4 30 C4 35.28 4 40.56 4 46 C25.12 46 46.24 46 68 46 C68 47.32 68 48.64 68 50 C40.28 50 12.56 50 -16 50 C-16 48.68 -16 47.36 -16 46 C-11.38 46 -6.76 46 -2 46 C-2 40.72 -2 35.44 -2 30 C-3.98 30 -5.96 30 -8 30 C-9.59138085 25.82262526 -10.21278058 22.46839215 -10 18 C-8.68 18 -7.36 18 -6 18 C-6.33 16.02 -6.66 14.04 -7 12 C-4.69 12 -2.38 12 0 12 C0 8.04 0 4.08 0 0 Z " fill="#878F96" transform="translate(22,10)"/>
<path d="M0 0 C6.6 0 13.2 0 20 0 C20 7.26 20 14.52 20 22 C13.4 22 6.8 22 0 22 C0 14.74 0 7.48 0 0 Z " fill="#74D0FB" transform="translate(66,60)"/>
<path d="M0 0 C0.66 0 1.32 0 2 0 C2 3.96 2 7.92 2 12 C4.31 12 6.62 12 9 12 C8.67 13.98 8.34 15.96 8 18 C9.32 18 10.64 18 12 18 C11.85962479 19.81293089 11.71255111 21.6253443 11.5625 23.4375 C11.48128906 24.44683594 11.40007813 25.45617187 11.31640625 26.49609375 C11 29 11 29 10 30 C8.65732587 30.08631874 7.31025678 30.10706473 5.96484375 30.09765625 C5.15595703 30.09443359 4.34707031 30.09121094 3.51367188 30.08789062 C2.66353516 30.07951172 1.81339844 30.07113281 0.9375 30.0625 C0.08349609 30.05798828 -0.77050781 30.05347656 -1.65039062 30.04882812 C-3.76695663 30.03700373 -5.88348685 30.01906769 -8 30 C-9.50121825 25.78004004 -10.2140723 22.49551832 -10 18 C-8.68 18 -7.36 18 -6 18 C-6.33 16.02 -6.66 14.04 -7 12 C-4.69 12 -2.38 12 0 12 C0 8.04 0 4.08 0 0 Z " fill="#8BD8F9" transform="translate(22,10)"/>
<path d="M0 0 C4.22129347 -0.43295318 6.71409051 0.2523572 10.375 2.1875 C13.66293697 3.79635707 13.66293697 3.79635707 17.21484375 3.5625 C19.30228343 2.7296659 19.30228343 2.7296659 21.17578125 1.69921875 C23.47863548 0.81654015 24.70829913 1.21586394 27 2 C27 3.65 27 5.3 27 7 C20.375 10 20.375 10 17 10 C16.80664062 10.67546875 16.61328125 11.3509375 16.4140625 12.046875 C16.15367188 12.93890625 15.89328125 13.8309375 15.625 14.75 C15.24214844 16.07257812 15.24214844 16.07257812 14.8515625 17.421875 C14.0790066 19.76080572 13.16374324 21.83442562 12 24 C10.68 24 9.36 24 8 24 C7.875 17.375 7.875 17.375 9 14 C7.783125 14.495 6.56625 14.99 5.3125 15.5 C-0.77506775 17.73712737 -0.77506775 17.73712737 -4 17 C-6.63560713 13.72821183 -7 12.27931853 -7 8 C-6.07767578 8.14308594 -6.07767578 8.14308594 -5.13671875 8.2890625 C-4.32847656 8.39992188 -3.52023438 8.51078125 -2.6875 8.625 C-1.88699219 8.74101562 -1.08648437 8.85703125 -0.26171875 8.9765625 C2.28723215 9.21533407 2.28723215 9.21533407 5 7 C4.175 6.401875 3.35 5.80375 2.5 5.1875 C1.675 4.465625 0.85 3.74375 0 3 C0 2.01 0 1.02 0 0 Z " fill="#40A4EE" transform="translate(55,22)"/>
<path d="M0 0 C5.28 0 10.56 0 16 0 C16 7.26 16 14.52 16 22 C10.72 22 5.44 22 0 22 C0 14.74 0 7.48 0 0 Z " fill="#97DCF8" transform="translate(10,60)"/>
<path d="M0 0 C27.72 0 55.44 0 84 0 C84 1.32 84 2.64 84 4 C56.28 4 28.56 4 0 4 C0 2.68 0 1.36 0 0 Z " fill="#878F96" transform="translate(6,82)"/>
<path d="M0 0 C0.66 0 1.32 0 2 0 C2 3.96 2 7.92 2 12 C4.31 12 6.62 12 9 12 C8.67 13.98 8.34 15.96 8 18 C3.38 18 -1.24 18 -6 18 C-6.33 16.02 -6.66 14.04 -7 12 C-4.69 12 -2.38 12 0 12 C0 8.04 0 4.08 0 0 Z " fill="#828B93" transform="translate(22,10)"/>
<path d="M0 0 C1.98 0 3.96 0 6 0 C6 5.28 6 10.56 6 16 C4.02 16 2.04 16 0 16 C0 10.72 0 5.44 0 0 Z " fill="#64717C" transform="translate(20,40)"/>
<path d="M0 0 C-0.50771472 5.96564796 -2.38592128 10.63809899 -5 16 C-6.32 16 -7.64 16 -9 16 C-8.98743475 11.59587947 -8.85788139 7.32765644 -8 3 C-5.09516913 0.71321825 -3.65178542 0 0 0 Z " fill="#2C79D5" transform="translate(72,30)"/>
<path d="M0 0 C1.32 0 2.64 0 4 0 C4 7.26 4 14.52 4 22 C2.68 22 1.36 22 0 22 C0 14.74 0 7.48 0 0 Z " fill="#35C1F1" transform="translate(66,60)"/>
<path d="M0 0 C1.32 0 2.64 0 4 0 C4 7.26 4 14.52 4 22 C2.68 22 1.36 22 0 22 C0 14.74 0 7.48 0 0 Z " fill="#35C1F1" transform="translate(46,60)"/>
<path d="M0 0 C1.32 0 2.64 0 4 0 C4 7.26 4 14.52 4 22 C2.68 22 1.36 22 0 22 C0 14.74 0 7.48 0 0 Z " fill="#35C1F1" transform="translate(26,60)"/>
<path d="M0 0 C1.98 0 3.96 0 6 0 C5.67 3.63 5.34 7.26 5 11 C3.35 11.33 1.7 11.66 0 12 C0 8.04 0 4.08 0 0 Z " fill="#33C2F1" transform="translate(28,28)"/>
<path d="M0 0 C1.98 0 3.96 0 6 0 C6 3.96 6 7.92 6 12 C4.35 11.67 2.7 11.34 1 11 C0.67 7.37 0.34 3.74 0 0 Z " fill="#33C2F1" transform="translate(12,28)"/>
<path d="M0 0 C5.65611463 -0.56561146 9.22642128 1.28608722 14 4 C14 4.66 14 5.32 14 6 C8.94220239 7.83127155 8.94220239 7.83127155 6 8 C3.24841559 6.71055459 2.08051525 5.34057965 0 3 C0 2.01 0 1.02 0 0 Z " fill="#2C7AD4" transform="translate(55,22)"/>
</svg>
