<svg xmlns="http://www.w3.org/2000/svg"  viewBox="0 0 40 40" width="160px" height="160px"><rect width="19" height="24.5" x="10.5" y="11" fill="#6b9cde"/><rect width="35" height="3" x="2.5" y="35.5" fill="#9ec6fa"/><path fill="#4e7ab5" d="M38,39H2v-4h36V39z M3,38h34v-2H3V38z"/><polygon fill="#9ec6fa" points="2.5,10.5 2.5,7.523 20,0.625 37.5,7.523 37.5,10.5"/><path fill="#4e7ab5" d="M38,11H2V7.183l18-7.095l18,7.095V11z M3,10h34V7.863L20,1.163L3,7.863V10z"/><rect width="5" height="22" x="5.5" y="13.5" fill="#9ec6fa"/><path fill="#4e7ab5" d="M11,36H5V13h6V36z M6,35h4V14H6V35z"/><rect width="5" height="22" x="29.5" y="13.5" fill="#9ec6fa"/><path fill="#4e7ab5" d="M35,36h-6V13h6V36z M30,35h4V14h-4V35z"/><path fill="#fff" d="M17.954,20.001c0-0.836,0.729-1.556,2.227-1.556c1.697,0,2.871,0.463,3.82,1.055v-2.82 c-0.706-0.404-1.724-0.609-3.153-0.68h-1.472c-1.239,0.125-2.495,0.653-3.247,1.423C15.377,18.192,15,19.123,15,20.216 c0,4.32,7.002,4.423,7.002,6.79c0,0.842-1.026,1.494-2.171,1.494c-2.344,0-3.438-0.923-3.831-1.25v2.894 c1.185,0.634,2.375,0.849,3.75,0.856h0.875c1.334-0.153,2.581-0.646,3.3-1.352C24.641,28.941,25,28.009,25,26.853 C25.001,22.241,17.954,22.594,17.954,20.001z"/><rect width="1.999" height="2.507" x="19.001" y="14" fill="#fff"/><rect width="1.999" height="2.507" x="19.001" y="30.493" fill="#fff"/><rect width="9" height="3" x="3.5" y="10.5" fill="#9ec6fa"/><path fill="#4e7ab5" d="M12,11v2H4v-2H12 M13,10H3v4h10V10L13,10z"/><rect width="9" height="3" x="27.5" y="10.5" fill="#9ec6fa"/><path fill="#4e7ab5" d="M36,11v2h-8v-2H36 M37,10H27v4h10V10L37,10z"/></svg>