<svg xmlns="http://www.w3.org/2000/svg"  viewBox="0 0 40 40" width="160px" height="160px"><rect width="15" height="10" x="12.5" y="2.5" fill="#e1ebf2"/><path fill="#788b9c" d="M28,13H12V2h16V13z M13,12h14V3H13V12z"/><rect width="21" height="34" x="9.5" y="4.5" fill="#e1ebf2"/><path fill="#788b9c" d="M31,39H9V4h22V39z M10,38h20V5H10V38z"/><path fill="#8bb7f0" d="M12.5,7.5h3v2h-3V7.5z"/><path fill="#7496c4" d="M16,10h-4V7h4V10z M13,9h2V8h-2V9z"/><path fill="#8bb7f0" d="M18.5,7.5h3v2h-3V7.5z"/><path fill="#7496c4" d="M22,10h-4V7h4V10z M19,9h2V8h-2V9z"/><path fill="#8bb7f0" d="M24.5,7.5h3v2h-3V7.5z"/><path fill="#7496c4" d="M28,10h-4V7h4V10z M25,9h2V8h-2V9z"/><path fill="#8bb7f0" d="M12.5,12.5h3v2h-3V12.5z"/><path fill="#7496c4" d="M16,15h-4v-3h4V15z M13,14h2v-1h-2V14z"/><path fill="#8bb7f0" d="M18.5,12.5h3v2h-3V12.5z"/><path fill="#7496c4" d="M22,15h-4v-3h4V15z M19,14h2v-1h-2V14z"/><path fill="#8bb7f0" stroke="#7496c4" stroke-miterlimit="10" d="M23.464,17.5h3.584V20h-3.584V17.5z"/><rect width="16" height="26" x="20.5" y="12.5" fill="#dcd5f2"/><path fill="#8b75a1" d="M37,39H20V12h17V39z M21,38h15V13H21V38z"/><path fill="#8bb7f0" d="M26.5,32.5h4v6h-4V32.5z"/><path fill="#7496c4" d="M31,39h-5v-7h5V39z M27,38h3v-5h-3V38z"/><g><path fill="#8bb7f0" d="M23.5,17.5h10v2h-10V17.5z"/><path fill="#7496c4" d="M34,20H23v-3h11V20z M24,19h9v-1h-9V19z"/></g><g><path fill="#8bb7f0" d="M23.5,22.5h10v2h-10V22.5z"/><path fill="#7496c4" d="M34,25H23v-3h11V25z M24,24h9v-1h-9V24z"/></g><g><path fill="#8bb7f0" d="M23.5,27.5h10v2h-10V27.5z"/><path fill="#7496c4" d="M34,30H23v-3h11V30z M24,29h9v-1h-9V29z"/></g><g><rect width="14" height="10" x="6.5" y="14.5" fill="#ffeea3"/><path fill="#ba9b48" d="M21,25H6V14h15V25z M7,24h13v-9H7V24z"/></g><g><rect width="20" height="21" x="3.5" y="17.5" fill="#ffeea3"/><path fill="#ba9b48" d="M24,39H3V17h21V39z M4,38h19V18H4V38z"/></g><g><path fill="#8bb7f0" d="M11.5,32.5h4v6h-4V32.5z"/><path fill="#7496c4" d="M16,39h-5v-7h5V39z M12,38h3v-5h-3V38z"/></g><g><path fill="#8bb7f0" d="M7.5,22.5h2v7h-2V22.5z"/><path fill="#7496c4" d="M10,30H7v-8h3V30z M8,29h1v-6H8V29z"/></g><g><path fill="#8bb7f0" d="M12.5,22.5h2v7h-2V22.5z"/><path fill="#7496c4" d="M15,30h-3v-8h3V30z M13,29h1v-6h-1V29z"/></g><g><path fill="#8bb7f0" d="M17.5,22.5h2v7h-2V22.5z"/><path fill="#7496c4" d="M20,30h-3v-8h3V30z M18,29h1v-6h-1V29z"/></g></svg>