<svg xmlns="http://www.w3.org/2000/svg"  viewBox="0 0 40 40" width="160px" height="160px"><polygon fill="#ffeea3" points="33.865,23.5 6.135,23.5 1,38.5 39,38.5"/><path fill="#ba9b48" d="M39.7,39H0.3l5.478-16h28.444L39.7,39z M1.7,38H38.3l-4.793-14H6.493L1.7,38z"/><polygon fill="#ffeea3" points="30.956,24.3 9.71,24.3 9,23 31.6,23" opacity=".5"/><path fill="#f78f8f" d="M19.999,35.311C18.064,33.124,8.5,21.858,8.5,13C8.5,6.658,13.658,1.5,20,1.5S31.5,6.658,31.5,13 C31.5,21.814,21.934,33.117,19.999,35.311z"/><path fill="#c74343" d="M20,36.066l-0.375-0.424C17.684,33.448,8,22.043,8,13C8,6.383,13.383,1,20,1s12,5.383,12,12 c0,9.002-9.685,20.44-11.626,22.642L20,36.066z M20,2C13.935,2,9,6.935,9,13c0,8.209,8.47,18.625,10.999,21.551 C22.526,31.617,31,21.172,31,13C31,6.935,26.065,2,20,2z"/><g><path fill="#f2faff" d="M20,18.5c-3.032,0-5.5-2.467-5.5-5.5s2.468-5.5,5.5-5.5s5.5,2.467,5.5,5.5S23.032,18.5,20,18.5z"/><path fill="#c74343" d="M20,19c-3.309,0-6-2.691-6-6s2.691-6,6-6s6,2.691,6,6S23.309,19,20,19z M20,8c-2.757,0-5,2.243-5,5 s2.243,5,5,5s5-2.243,5-5S22.757,8,20,8z"/></g></svg>