<svg xmlns="http://www.w3.org/2000/svg"  viewBox="0 0 40 40" width="160px" height="160px"><path fill="#b0c1d4" d="M15,38.5c-1.93,0-3.5-1.57-3.5-3.5V9c0-1.93,1.57-3.5,3.5-3.5h13.5v-4h2V35 c0,1.93-1.57,3.5-3.5,3.5H15z"/><path fill="#66798f" d="M30,2v3v2v28c0,1.654-1.346,3-3,3H15c-1.654,0-3-1.346-3-3V9c0-1.654,1.346-3,3-3h13h1V5V2H30 M31,1h-3v4H15c-2.209,0-4,1.791-4,4v26c0,2.209,1.791,4,4,4h12c2.209,0,4-1.791,4-4V7V5V1L31,1z"/><path fill="#c2e8ff" d="M15,17.5c-0.275,0-0.5-0.224-0.5-0.5V9c0-0.276,0.225-0.5,0.5-0.5h12c0.275,0,0.5,0.224,0.5,0.5v8 c0,0.276-0.225,0.5-0.5,0.5H15z"/><path fill="#66798f" d="M27,9v8H15V9H27 M27,8H15c-0.552,0-1,0.448-1,1v8c0,0.552,0.448,1,1,1h12c0.552,0,1-0.448,1-1V9 C28,8.448,27.552,8,27,8L27,8z"/><path fill="#f2faff" d="M15.5 23h-1c-.276 0-.5-.224-.5-.5v-1c0-.276.224-.5.5-.5h1c.276 0 .5.224.5.5v1C16 22.776 15.776 23 15.5 23zM19.5 23h-1c-.276 0-.5-.224-.5-.5v-1c0-.276.224-.5.5-.5h1c.276 0 .5.224.5.5v1C20 22.776 19.776 23 19.5 23zM23.5 23h-1c-.276 0-.5-.224-.5-.5v-1c0-.276.224-.5.5-.5h1c.276 0 .5.224.5.5v1C24 22.776 23.776 23 23.5 23zM27.5 23h-1c-.276 0-.5-.224-.5-.5v-1c0-.276.224-.5.5-.5h1c.276 0 .5.224.5.5v1C28 22.776 27.776 23 27.5 23zM15.5 27h-1c-.276 0-.5-.224-.5-.5v-1c0-.276.224-.5.5-.5h1c.276 0 .5.224.5.5v1C16 26.776 15.776 27 15.5 27zM19.5 27h-1c-.276 0-.5-.224-.5-.5v-1c0-.276.224-.5.5-.5h1c.276 0 .5.224.5.5v1C20 26.776 19.776 27 19.5 27zM23.5 27h-1c-.276 0-.5-.224-.5-.5v-1c0-.276.224-.5.5-.5h1c.276 0 .5.224.5.5v1C24 26.776 23.776 27 23.5 27zM27.5 27h-1c-.276 0-.5-.224-.5-.5v-1c0-.276.224-.5.5-.5h1c.276 0 .5.224.5.5v1C28 26.776 27.776 27 27.5 27zM15.5 31h-1c-.276 0-.5-.224-.5-.5v-1c0-.276.224-.5.5-.5h1c.276 0 .5.224.5.5v1C16 30.776 15.776 31 15.5 31zM19.5 31h-1c-.276 0-.5-.224-.5-.5v-1c0-.276.224-.5.5-.5h1c.276 0 .5.224.5.5v1C20 30.776 19.776 31 19.5 31zM23.5 31h-1c-.276 0-.5-.224-.5-.5v-1c0-.276.224-.5.5-.5h1c.276 0 .5.224.5.5v1C24 30.776 23.776 31 23.5 31zM27.5 31h-1c-.276 0-.5-.224-.5-.5v-1c0-.276.224-.5.5-.5h1c.276 0 .5.224.5.5v1C28 30.776 27.776 31 27.5 31zM15.5 35h-1c-.276 0-.5-.224-.5-.5v-1c0-.276.224-.5.5-.5h1c.276 0 .5.224.5.5v1C16 34.776 15.776 35 15.5 35zM19.5 35h-1c-.276 0-.5-.224-.5-.5v-1c0-.276.224-.5.5-.5h1c.276 0 .5.224.5.5v1C20 34.776 19.776 35 19.5 35zM23.5 35h-1c-.276 0-.5-.224-.5-.5v-1c0-.276.224-.5.5-.5h1c.276 0 .5.224.5.5v1C24 34.776 23.776 35 23.5 35zM27.5 35h-1c-.276 0-.5-.224-.5-.5v-1c0-.276.224-.5.5-.5h1c.276 0 .5.224.5.5v1C28 34.776 27.776 35 27.5 35z"/></svg>