<svg xmlns="http://www.w3.org/2000/svg"  viewBox="0 0 40 40" width="160px" height="160px"><path fill="#8bb7f0" d="M20,38.5C9.799,38.5,1.5,30.201,1.5,20S9.799,1.5,20,1.5S38.5,9.799,38.5,20S30.201,38.5,20,38.5z"/><path fill="#4e7ab5" d="M20,2c9.925,0,18,8.075,18,18s-8.075,18-18,18S2,29.925,2,20S10.075,2,20,2 M20,1 C9.507,1,1,9.507,1,20s8.507,19,19,19s19-8.507,19-19S30.493,1,20,1L20,1z"/><path fill="#fff" d="M20 28A2 2 0 1 0 20 32A2 2 0 1 0 20 28Z"/><path fill="none" stroke="#fff" stroke-miterlimit="10" stroke-width="3" d="M15.5,17v-2c0-2.485,2.015-4.5,4.5-4.5h0	c2.485,0,4.5,1.991,4.5,4.5c0,4.694-4.5,4.793-4.5,9v1.5"/></svg>