<svg xmlns="http://www.w3.org/2000/svg"  viewBox="0 0 80 80" width="160px" height="160px"><path fill="#e8d47b" d="M64,42.5c-5.238,0-9.5-4.262-9.5-9.5s4.262-9.5,9.5-9.5s9.5,4.262,9.5,9.5S69.238,42.5,64,42.5z"/><path fill="#ba9b48" d="M64,24c4.963,0,9,4.037,9,9s-4.037,9-9,9s-9-4.037-9-9S59.037,24,64,24 M64,23 c-5.523,0-10,4.477-10,10s4.477,10,10,10s10-4.477,10-10S69.523,23,64,23L64,23z"/><path fill="#8bb7f0" d="M48.5,64.5V63c0-8.547,6.953-15.5,15.5-15.5S79.5,54.453,79.5,63v1.5H48.5z"/><path fill="#4e7ab5" d="M64,48c8.271,0,15,6.729,15,15v1H49v-1C49,54.729,55.729,48,64,48 M64,47L64,47 c-8.837,0-16,7.163-16,16v2h32v-2C80,54.163,72.837,47,64,47L64,47z"/><path fill="#e8d47b" d="M16,42.5c-5.238,0-9.5-4.262-9.5-9.5s4.262-9.5,9.5-9.5s9.5,4.262,9.5,9.5S21.238,42.5,16,42.5z"/><path fill="#ba9b48" d="M16,24c4.963,0,9,4.037,9,9s-4.037,9-9,9s-9-4.037-9-9S11.037,24,16,24 M16,23 c-5.523,0-10,4.477-10,10s4.477,10,10,10s10-4.477,10-10S21.523,23,16,23L16,23z"/><path fill="#e8d47b" d="M29,22.5c-4.687,0-8.5-3.813-8.5-8.5s3.813-8.5,8.5-8.5s8.5,3.813,8.5,8.5S33.687,22.5,29,22.5z"/><path fill="#ba9b48" d="M29,6c4.411,0,8,3.589,8,8s-3.589,8-8,8s-8-3.589-8-8S24.589,6,29,6 M29,5c-4.971,0-9,4.029-9,9 s4.029,9,9,9s9-4.029,9-9S33.971,5,29,5L29,5z"/><g><path fill="#e8d47b" d="M51,22.5c-4.687,0-8.5-3.813-8.5-8.5s3.813-8.5,8.5-8.5s8.5,3.813,8.5,8.5S55.687,22.5,51,22.5z"/><path fill="#ba9b48" d="M51,6c4.411,0,8,3.589,8,8s-3.589,8-8,8s-8-3.589-8-8S46.589,6,51,6 M51,5c-4.971,0-9,4.029-9,9 s4.029,9,9,9s9-4.029,9-9S55.971,5,51,5L51,5z"/></g><g><path fill="#8bb7f0" d="M0.5,64.5V63c0-8.547,6.953-15.5,15.5-15.5S31.5,54.453,31.5,63v1.5H0.5z"/><path fill="#4e7ab5" d="M16,48c8.271,0,15,6.729,15,15v1H1v-1C1,54.729,7.729,48,16,48 M16,47L16,47 C7.163,47,0,54.163,0,63v2h32v-2C32,54.163,24.837,47,16,47L16,47z"/></g><g><path fill="#e8d47b" d="M40,52.5c-5.238,0-9.5-4.262-9.5-9.5s4.262-9.5,9.5-9.5s9.5,4.262,9.5,9.5S45.238,52.5,40,52.5z"/><path fill="#ba9b48" d="M40,34c4.963,0,9,4.037,9,9s-4.037,9-9,9s-9-4.037-9-9S35.037,34,40,34 M40,33 c-5.523,0-10,4.477-10,10s4.477,10,10,10s10-4.477,10-10S45.523,33,40,33L40,33z"/></g><g><path fill="#c2e8ff" d="M24.5,74.5V73c0-8.547,6.953-15.5,15.5-15.5S55.5,64.453,55.5,73v1.5H24.5z"/><path fill="#7496c4" d="M40,58c8.271,0,15,6.729,15,15v1H25v-1C25,64.729,31.729,58,40,58 M40,57L40,57 c-8.837,0-16,7.163-16,16v2h32v-2C56,64.163,48.837,57,40,57L40,57z"/></g></svg>