<svg xmlns="http://www.w3.org/2000/svg"  viewBox="0 0 256 256" width="32px" height="32px"><path fill="#4671c6" d="M200.622,99.628l-83.51-48.598c-5.264-3.063-11.767-3.063-17.031,0l-83.51,48.598 c-1.985,1.155-3.206,3.279-3.206,5.575v3.063v3.386l85.627,58.988c5.783,3.984,13.426,3.984,19.209,0l85.627-58.988v-3.386v-3.063 C203.828,102.907,202.607,100.783,200.622,99.628z"/><path fill="#a4c9ff" d="M98.992,170.64l-85.627-58.988V225.93c0,3.74,3.032,6.772,6.772,6.772h176.919 c3.74,0,6.772-3.032,6.772-6.772V111.652l-85.627,58.988C112.418,174.624,104.775,174.624,98.992,170.64z"/><path fill="#3762cc" d="M197.056,234.702H20.137c-4.837,0-8.772-3.936-8.772-8.772V105.203c0-2.997,1.609-5.796,4.2-7.304 l83.51-48.598c5.873-3.418,13.17-3.418,19.042,0l83.51,48.598l0,0c2.591,1.508,4.2,4.307,4.2,7.304V225.93 C205.828,230.767,201.893,234.702,197.056,234.702z M108.596,50.737c-2.597,0-5.193,0.674-7.509,2.021l-83.51,48.598 c-1.364,0.794-2.212,2.269-2.212,3.847V225.93c0,2.632,2.141,4.772,4.772,4.772h176.918c2.631,0,4.772-2.141,4.772-4.772V105.203 c0-1.578-0.848-3.053-2.212-3.847l-83.51-48.598C113.79,51.411,111.193,50.737,108.596,50.737z"/><path fill="#e0ebfc" d="M98.992,170.64c5.783,3.984,13.426,3.984,19.209,0l62.896-43.328V32.791c0-5.523-4.477-10-10-10h-125 c-5.523,0-10,4.477-10,10v94.521L98.992,170.64z"/><path fill="#a4c9ff" d="M118.201,170.639c-5.783,3.984-13.426,3.984-19.209,0l-5.141-3.542l-80.486,55.446v3.386 c0,3.74,3.032,6.772,6.772,6.772h176.919c3.74,0,6.772-3.032,6.772-6.772v-3.386l-80.486-55.446L118.201,170.639z"/><path fill="#3762cc" d="M197.056,234.701H20.137c-4.837,0-8.772-3.935-8.772-8.771v-3.386c0-0.658,0.324-1.273,0.865-1.647 l80.486-55.446c0.684-0.469,1.586-0.471,2.27,0l5.141,3.543c5.066,3.488,11.873,3.489,16.94-0.001l5.14-3.541 c0.684-0.471,1.586-0.472,2.27-0.001l80.486,55.446c0.542,0.374,0.865,0.989,0.865,1.647v3.386 C205.828,230.767,201.893,234.701,197.056,234.701z M15.365,223.595v2.335c0,2.631,2.141,4.771,4.772,4.771h176.918 c2.631,0,4.772-2.141,4.772-4.771v-2.335l-78.486-54.068l-4.006,2.76c0,0.001,0,0.001,0,0.001c-6.423,4.425-15.054,4.424-21.478,0 l-4.007-2.761L15.365,223.595z M118.201,170.64h0.01H118.201z"/><path fill="#b9befc" d="M161.097,50.791h-105c-2.209,0-4-1.791-4-4s1.791-4,4-4h105c2.209,0,4,1.791,4,4 S163.306,50.791,161.097,50.791z"/><path fill="#b9befc" d="M161.097,74.791h-105c-2.209,0-4-1.791-4-4s1.791-4,4-4h105c2.209,0,4,1.791,4,4 S163.306,74.791,161.097,74.791z"/><path fill="#b9befc" d="M161.097,98.791h-105c-2.209,0-4-1.791-4-4s1.791-4,4-4h105c2.209,0,4,1.791,4,4 S163.306,98.791,161.097,98.791z"/><path fill="#b9befc" d="M161.097,122.791h-105c-2.209,0-4-1.791-4-4s1.791-4,4-4h105c2.209,0,4,1.791,4,4 S163.306,122.791,161.097,122.791z"/><path fill="#3762cc" d="M197.056,234.702H20.137c-4.837,0-8.772-3.936-8.772-8.772V111.652c0-0.743,0.412-1.425,1.07-1.771 c0.657-0.346,1.452-0.298,2.065,0.123l85.627,58.987l0,0c5.066,3.49,11.874,3.492,16.939,0l85.626-58.987 c0.612-0.42,1.408-0.469,2.065-0.123c0.658,0.346,1.07,1.027,1.07,1.771V225.93C205.828,230.767,201.893,234.702,197.056,234.702z M15.365,115.459V225.93c0,2.632,2.141,4.772,4.772,4.772h176.918c2.631,0,4.772-2.141,4.772-4.772V115.459l-82.492,56.828 c-6.423,4.425-15.055,4.427-21.479-0.001L15.365,115.459z"/><circle cx="193.828" cy="182.849" r="39.085" fill="#f9a7a7"/><path fill="#f9cfcf" d="M193.828,211.934c-16.038,0-29.085-13.048-29.085-29.085s13.047-29.085,29.085-29.085 s29.085,13.048,29.085,29.085S209.865,211.934,193.828,211.934z"/><path fill="#3762cc" d="M193.828,223.934c-22.654,0-41.085-18.431-41.085-41.085s18.431-41.085,41.085-41.085 c22.655,0,41.085,18.431,41.085,41.085S216.482,223.934,193.828,223.934z M193.828,145.764c-20.449,0-37.085,16.637-37.085,37.085 s16.636,37.085,37.085,37.085c20.449,0,37.085-16.637,37.085-37.085S214.277,145.764,193.828,145.764z"/><path fill="#6bdddd" d="M192.043,184.873l1.418,25.332c0.103,1.846,2.342,2.701,3.65,1.393l1.728-1.728 c0.836-0.836,2.191-0.836,3.026,0l22.712,22.712c0.836,0.836,2.191,0.836,3.026,0l14.405-14.405c0.836-0.836,0.836-2.191,0-3.026 l-22.712-22.712c-0.836-0.836-0.836-2.191,0-3.026l1.728-1.728c1.308-1.308,0.453-3.546-1.393-3.65l-25.332-1.418 C193.025,182.546,191.972,183.599,192.043,184.873z"/><path fill="#3762cc" d="M226.09,235.209c-1.105,0-2.146-0.431-2.927-1.213l-22.711-22.712c-0.054-0.054-0.142-0.054-0.199,0.001 l-1.728,1.728c-1.17,1.171-2.859,1.529-4.404,0.94c-1.546-0.591-2.564-1.984-2.656-3.637l-1.418-25.331c0-0.001,0-0.001,0-0.001 c-0.065-1.175,0.374-2.326,1.206-3.158c0.833-0.833,1.989-1.27,3.159-1.206l25.332,1.418c1.653,0.093,3.046,1.111,3.636,2.657 c0.59,1.547,0.23,3.234-0.94,4.404l-1.728,1.728c-0.046,0.047-0.046,0.151,0,0.198l22.711,22.712 c0.782,0.782,1.213,1.821,1.213,2.928c0,1.105-0.431,2.145-1.213,2.927l-14.404,14.404 C228.236,234.778,227.197,235.209,226.09,235.209z M200.353,207.246c1.06,0,2.12,0.403,2.927,1.209l22.712,22.713 c0.046,0.046,0.15,0.048,0.198,0l14.405-14.404c0.054-0.055,0.054-0.144,0-0.198l-22.711-22.712 c-0.782-0.782-1.213-1.821-1.213-2.928c0-1.105,0.431-2.145,1.213-2.927l1.728-1.728c0.03-0.03,0.064-0.064,0.032-0.149 c-0.033-0.085-0.081-0.088-0.123-0.09l-25.332-1.418c-0.015,0.001-0.063-0.004-0.107,0.041c-0.044,0.044-0.042,0.089-0.041,0.106 l1.418,25.332c0.002,0.044,0.005,0.09,0.089,0.122c0.086,0.035,0.119-0.001,0.149-0.031l1.729-1.729 C198.232,207.649,199.292,207.246,200.353,207.246z"/><path fill="#3762cc" d="M108.597,175.605c-3.764,0-7.527-1.105-10.739-3.319v0.001l-62.896-43.328 c-0.542-0.374-0.865-0.989-0.865-1.647V32.791c0-6.617,5.383-12,12-12h125c6.617,0,12,5.383,12,12v94.521 c0,0.658-0.324,1.273-0.865,1.647l-62.896,43.328C116.125,174.499,112.36,175.605,108.597,175.605z M38.097,126.261l62.03,42.731 l0,0c5.066,3.49,11.874,3.492,16.939,0l62.03-42.731v-93.47c0-4.411-3.589-8-8-8h-125c-4.411,0-8,3.589-8,8V126.261z"/></svg>