<svg xmlns="http://www.w3.org/2000/svg"  viewBox="0 0 40 40" width="160px" height="160px"><path fill="#fff" d="M2.5 3.5H37.5V36.5H2.5z"/><path fill="#788b9c" d="M37,4v32H3V4H37 M38,3H2v34h36V3L38,3z"/><path fill="#c2e8ff" d="M2.5 3.5H37.5V12.5H2.5z"/><path fill="#7496c4" d="M37,4v8H3V4H37 M38,3H2v10h36V3L38,3z"/><path fill="#788b9c" d="M22 16H34V17H22z"/><path fill="#7496c4" d="M6 7H8V9H6zM10 7H12V9H10zM14 7H16V9H14z"/><path fill="#788b9c" d="M22 20H34V21H22zM22 24H34V25H22zM22 28H34V29H22zM22 32H34V33H22z"/><g><path fill="#dcd5f2" d="M6.5 16.5H18.5V32.5H6.5z"/><path fill="#8b75a1" d="M18,17v15H7V17H18 M19,16H6v17h13V16L19,16z"/></g></svg>