<svg xmlns="http://www.w3.org/2000/svg"  viewBox="0 0 40 40" width="160px" height="160px"><path fill="#c8d1db" d="M6.5 6.5H10.5V9.5H6.5z"/><path fill="#66798f" d="M10,7v2H7V7H10 M11,6H6v4h5V6L11,6z"/><path fill="#c8d1db" d="M29.5 6.5H33.5V9.5H29.5z"/><path fill="#66798f" d="M33,7v2h-3V7H33 M34,6h-5v4h5V6L34,6z"/><path fill="#36404d" d="M5.333 27H34.666V31H5.333z"/><path fill="#c8d1db" d="M34.5 27.5A3 3 0 1 0 34.5 33.5A3 3 0 1 0 34.5 27.5Z"/><path fill="#66798f" d="M34.5,28c1.378,0,2.5,1.121,2.5,2.5S35.878,33,34.5,33S32,31.879,32,30.5S33.122,28,34.5,28 M34.5,27c-1.933,0-3.5,1.567-3.5,3.5s1.567,3.5,3.5,3.5s3.5-1.567,3.5-3.5S36.433,27,34.5,27L34.5,27z"/><path fill="#c8d1db" d="M27.5 27.5A3 3 0 1 0 27.5 33.5A3 3 0 1 0 27.5 27.5Z"/><path fill="#66798f" d="M27.5,28c1.378,0,2.5,1.121,2.5,2.5S28.878,33,27.5,33S25,31.879,25,30.5S26.122,28,27.5,28 M27.5,27c-1.933,0-3.5,1.567-3.5,3.5s1.567,3.5,3.5,3.5s3.5-1.567,3.5-3.5S29.433,27,27.5,27L27.5,27z"/><path fill="#c8d1db" d="M12.5 27.5A3 3 0 1 0 12.5 33.5A3 3 0 1 0 12.5 27.5Z"/><path fill="#66798f" d="M12.5,28c1.378,0,2.5,1.121,2.5,2.5S13.878,33,12.5,33S10,31.879,10,30.5S11.122,28,12.5,28 M12.5,27C10.567,27,9,28.567,9,30.5s1.567,3.5,3.5,3.5s3.5-1.567,3.5-3.5S14.433,27,12.5,27L12.5,27z"/><path fill="#c8d1db" d="M5.5 27.5A3 3 0 1 0 5.5 33.5A3 3 0 1 0 5.5 27.5Z"/><path fill="#66798f" d="M5.5,28C6.878,28,8,29.121,8,30.5S6.878,33,5.5,33S3,31.879,3,30.5S4.122,28,5.5,28 M5.5,27 C3.567,27,2,28.567,2,30.5S3.567,34,5.5,34S9,32.433,9,30.5S7.433,27,5.5,27L5.5,27z"/><g><path fill="#bae0bd" d="M1,28.5c-0.276,0-0.5-0.225-0.5-0.5V11c0-1.93,1.57-3.5,3.5-3.5h32c1.93,0,3.5,1.57,3.5,3.5v17 c0,0.275-0.224,0.5-0.5,0.5H1z"/><path fill="#5e9c76" d="M36,8c1.654,0,3,1.346,3,3v17H1V11c0-1.654,1.346-3,3-3H36 M36,7H4c-2.209,0-4,1.791-4,4v17 c0,0.552,0.448,1,1,1h38c0.552,0,1-0.448,1-1V11C40,8.791,38.209,7,36,7L36,7z"/></g><g><path fill="#c2e8ff" d="M30,20.5c-0.827,0-1.5-0.673-1.5-1.5v-6c0-0.827,0.673-1.5,1.5-1.5h4c0.827,0,1.5,0.673,1.5,1.5v6 c0,0.827-0.673,1.5-1.5,1.5H30z"/><path fill="#5e9c76" d="M34,12c0.551,0,1,0.449,1,1v6c0,0.551-0.449,1-1,1h-4c-0.551,0-1-0.449-1-1v-6c0-0.551,0.449-1,1-1 H34 M34,11h-4c-1.105,0-2,0.895-2,2v6c0,1.105,0.895,2,2,2h4c1.105,0,2-0.895,2-2v-6C36,11.895,35.105,11,34,11L34,11z"/></g><g><path fill="#c2e8ff" d="M23,20.5c-0.827,0-1.5-0.673-1.5-1.5v-6c0-0.827,0.673-1.5,1.5-1.5h4c0.827,0,1.5,0.673,1.5,1.5v6 c0,0.827-0.673,1.5-1.5,1.5H23z"/><path fill="#5e9c76" d="M27,12c0.551,0,1,0.449,1,1v6c0,0.551-0.449,1-1,1h-4c-0.551,0-1-0.449-1-1v-6c0-0.551,0.449-1,1-1 H27 M27,11h-4c-1.105,0-2,0.895-2,2v6c0,1.105,0.895,2,2,2h4c1.105,0,2-0.895,2-2v-6C29,11.895,28.105,11,27,11L27,11z"/></g><g><path fill="#c2e8ff" d="M6,20.5c-0.827,0-1.5-0.673-1.5-1.5v-6c0-0.827,0.673-1.5,1.5-1.5h4c0.827,0,1.5,0.673,1.5,1.5v6 c0,0.827-0.673,1.5-1.5,1.5H6z"/><path fill="#5e9c76" d="M10,12c0.551,0,1,0.449,1,1v6c0,0.551-0.449,1-1,1H6c-0.551,0-1-0.449-1-1v-6c0-0.551,0.449-1,1-1 H10 M10,11H6c-1.105,0-2,0.895-2,2v6c0,1.105,0.895,2,2,2h4c1.105,0,2-0.895,2-2v-6C12,11.895,11.105,11,10,11L10,11z"/></g><g><path fill="#c2e8ff" d="M13,20.5c-0.827,0-1.5-0.673-1.5-1.5v-6c0-0.827,0.673-1.5,1.5-1.5h4c0.827,0,1.5,0.673,1.5,1.5v6 c0,0.827-0.673,1.5-1.5,1.5H13z"/><path fill="#5e9c76" d="M17,12c0.551,0,1,0.449,1,1v6c0,0.551-0.449,1-1,1h-4c-0.551,0-1-0.449-1-1v-6c0-0.551,0.449-1,1-1 H17 M17,11h-4c-1.105,0-2,0.895-2,2v6c0,1.105,0.895,2,2,2h4c1.105,0,2-0.895,2-2v-6C19,11.895,18.105,11,17,11L17,11z"/></g><g><path fill="#5e9c76" d="M4 24H36V25H4z"/></g></svg>