<svg xmlns="http://www.w3.org/2000/svg"  viewBox="0 0 40 40" width="160px" height="160px"><path fill="#bae0bd" d="M2.667,28.5c-1.195,0-2.167-0.972-2.167-2.167v-6.666c0-1.195,0.972-2.167,2.167-2.167h8.424 l1.031-6.189c0.175-1.049,1.073-1.811,2.137-1.811h10.76c0.826,0,1.569,0.459,1.938,1.198l3.361,6.722l7.61,2.175 c0.925,0.265,1.571,1.121,1.571,2.083v4.655c0,1.195-0.972,2.167-2.167,2.167H2.667z"/><path fill="#5e9c76" d="M25.019,10c0.635,0,1.207,0.353,1.491,0.921l3.262,6.526l0.197,0.393l0.423,0.121l7.399,2.114 C38.503,20.279,39,20.938,39,21.678v4.655C39,27.252,38.252,28,37.333,28H2.667C1.748,28,1,27.252,1,26.333v-6.667 C1,18.748,1.748,18,2.667,18h8h0.847l0.139-0.836l0.962-5.772C12.75,10.586,13.441,10,14.259,10H25.019 M25.019,9h-10.76 c-1.304,0-2.416,0.942-2.63,2.228L10.667,17h-8C1.194,17,0,18.194,0,19.667v6.667C0,27.806,1.194,29,2.667,29h34.667 C38.806,29,40,27.806,40,26.333v-4.655c0-1.191-0.789-2.237-1.934-2.564L30.667,17l-3.262-6.526C26.953,9.571,26.029,9,25.019,9 L25.019,9z"/><path fill="#c8d1db" d="M31.5 23.5A4 4 0 1 0 31.5 31.5A4 4 0 1 0 31.5 23.5Z"/><path fill="#66798f" d="M31.5,24c1.93,0,3.5,1.57,3.5,3.5S33.43,31,31.5,31S28,29.43,28,27.5S29.57,24,31.5,24 M31.5,23 c-2.485,0-4.5,2.015-4.5,4.5s2.015,4.5,4.5,4.5s4.5-2.015,4.5-4.5S33.985,23,31.5,23L31.5,23z"/><path fill="#66798f" d="M31.5 26A1.5 1.5 0 1 0 31.5 29A1.5 1.5 0 1 0 31.5 26Z"/><path fill="#c8d1db" d="M8.5 23.5A4 4 0 1 0 8.5 31.5A4 4 0 1 0 8.5 23.5Z"/><path fill="#66798f" d="M8.5,24c1.93,0,3.5,1.57,3.5,3.5S10.43,31,8.5,31S5,29.43,5,27.5S6.57,24,8.5,24 M8.5,23 C6.015,23,4,25.015,4,27.5S6.015,32,8.5,32s4.5-2.015,4.5-4.5S10.985,23,8.5,23L8.5,23z"/><path fill="#66798f" d="M8.5 26A1.5 1.5 0 1 0 8.5 29A1.5 1.5 0 1 0 8.5 26Z"/><path fill="#c74343" d="M1.5,23H0v-4h1.5C2.328,19,3,19.609,3,20.36v1.28C3,22.391,2.328,23,1.5,23z"/><g><path fill="#c2e8ff" d="M9.58,17.5l0.914-6.138C10.646,10.3,11.568,9.5,12.64,9.5h12.353c0.826,0,1.569,0.459,1.938,1.198 l3.389,6.723l0.277,0.079H9.58z"/><path fill="#5e9c76" d="M24.992,10c0.635,0,1.207,0.353,1.492,0.924L29.547,17H10.16l0.83-5.569 C11.107,10.615,11.816,10,12.64,10H24.992 M24.992,9H12.64c-1.327,0-2.452,0.976-2.64,2.29L9,18h25.167l-3.5-1l-3.289-6.526 C26.926,9.571,26.002,9,24.992,9L24.992,9z"/></g><path fill="#5e9c76" d="M18 9H19V18H18z"/><path fill="#fff" d="M38.5,21c-0.828,0-1.5,0.672-1.5,1.5s0.672,1.5,1.5,1.5H39v-2.501c0-0.173-0.037-0.337-0.079-0.499 H38.5z"/></svg>