<svg xmlns="http://www.w3.org/2000/svg"  viewBox="0 0 40 40" width="160px" height="160px"><path fill="#8bb7f0" d="M3,28.5c-1.379,0-2.5-1.122-2.5-2.5v-8.728l3.229-7.285C4.13,9.084,5.026,8.5,6.015,8.5h17.998 c1.089,0,2.132,0.518,2.789,1.385l4.858,6.407l5.962,1.042c1.077,0.153,1.878,1.075,1.878,2.147V25c0,1.93-1.57,3.5-3.5,3.5H3z"/><path fill="#4e7ab5" d="M24.013,9c0.933,0,1.827,0.444,2.391,1.187l4.739,6.25l0.237,0.313l0.387,0.068l5.8,1.013 C38.384,17.947,39,18.657,39,19.482V25c0,1.654-1.346,3-3,3H3c-1.103,0-2-0.897-2-2v-8.622l3.186-7.189 C4.506,9.467,5.224,9,6.014,9H24.013 M24.013,8H6.014C4.828,8,3.753,8.7,3.272,9.784L0,17.167V26c0,1.657,1.343,3,3,3h33 c2.209,0,4-1.791,4-4v-5.518c0-1.328-0.977-2.454-2.292-2.64l-5.769-1.008L27.2,9.583C26.444,8.586,25.265,8,24.013,8L24.013,8z"/><path fill="#c74343" d="M4,19.833C4,19.097,3.403,18.5,2.667,18.5H0v4h2.667C3.403,22.5,4,21.903,4,21.167	C4,20.918,4,20.082,4,19.833z"/><path fill="#fff" d="M36,20.5v1c0,0.828,0.672,1.5,1.5,1.5H39c0,0,0-2.67,0-3.475C39,19.174,38.928,19,38.928,19H37.5	C36.672,19,36,19.672,36,20.5z"/><path fill="#c2e8ff" d="M7.604,16.5c-0.455,0-0.88-0.203-1.166-0.556c-0.286-0.354-0.396-0.811-0.302-1.256L7.45,8.5h16.562 c1.089,0,2.132,0.518,2.789,1.385l4.858,6.407L32.85,16.5H7.604z"/><path fill="#4e7ab5" d="M24.013,9c0.933,0,1.827,0.444,2.391,1.187L30.811,16H7.604c-0.303,0-0.586-0.135-0.777-0.371 s-0.264-0.541-0.201-0.837L7.855,9H24.013 M24.013,8H7.045l-1.398,6.585C5.384,15.829,6.332,17,7.604,17h30.685 c-0.185-0.071-0.377-0.13-0.581-0.159l-5.769-1.008L27.2,9.583C26.444,8.586,25.265,8,24.013,8L24.013,8z"/><path fill="none" stroke="#4e7ab5" stroke-miterlimit="10" d="M20.667 16.5L20.667 8.5M13.667 16.5L13.667 8.5"/><path fill="#c8d1db" d="M31 23.5A4.5 4.5 0 1 0 31 32.5A4.5 4.5 0 1 0 31 23.5Z"/><path fill="#66798f" d="M31,24c2.206,0,4,1.794,4,4s-1.794,4-4,4s-4-1.794-4-4S28.794,24,31,24 M31,23c-2.761,0-5,2.239-5,5 s2.239,5,5,5s5-2.239,5-5S33.761,23,31,23L31,23z"/><g><path fill="#66798f" d="M31 26.5A1.5 1.5 0 1 0 31 29.5A1.5 1.5 0 1 0 31 26.5Z"/></g><g><path fill="#c8d1db" d="M9 23.5A4.5 4.5 0 1 0 9 32.5A4.5 4.5 0 1 0 9 23.5Z"/><path fill="#66798f" d="M9,24c2.206,0,4,1.794,4,4s-1.794,4-4,4s-4-1.794-4-4S6.794,24,9,24 M9,23c-2.761,0-5,2.239-5,5 s2.239,5,5,5s5-2.239,5-5S11.761,23,9,23L9,23z"/></g><g><path fill="#66798f" d="M9 26.5A1.5 1.5 0 1 0 9 29.5A1.5 1.5 0 1 0 9 26.5Z"/></g></svg>