<svg xmlns="http://www.w3.org/2000/svg"  viewBox="0 0 40 40" width="160px" height="160px"><path fill="#8bb7f0" d="M1.809 29.5L4.5 24.118 4.5 15.882 1.809 10.5 3.766 10.5 8.5 16.181 8.5 23.819 3.766 29.5z"/><path fill="#4e7ab5" d="M3.532,11L8,16.362v7.276L3.532,29H2.618l2.276-4.553L5,24.236V24v-8v-0.236l-0.106-0.211 L2.618,11H3.532 M4,10H1l3,6v8l-3,6h3l5-6v-8L4,10L4,10z"/><path fill="#8bb7f0" d="M12.663 37.5L16.5 24.07 16.5 15.93 12.663 2.5 15.71 2.5 23.5 16.133 23.5 23.867 15.71 37.5z"/><path fill="#4e7ab5" d="M15.42,3L23,16.266v7.469L15.42,37h-2.094l3.636-12.725L17,24.14V24v-8v-0.14l-0.038-0.135 L13.326,3H15.42 M16,2h-4l4,14v8l-4,14h4l8-14v-8L16,2L16,2z"/><g><path fill="#c2e8ff" d="M4.5,23.5v-7H35c1.93,0,3.5,1.57,3.5,3.5s-1.57,3.5-3.5,3.5H4.5z"/><path fill="#7496c4" d="M35,17c1.654,0,3,1.346,3,3s-1.346,3-3,3H5v-6H35 M35,16H4v8h31c2.209,0,4-1.791,4-4 S37.209,16,35,16L35,16z"/></g></svg>