<?xml version="1.0" encoding="utf-8"?>
<!-- Generator: Adobe Illustrator 22.1.0, SVG Export Plug-In . SVG Version: 6.00 Build 0)  -->
<svg version="1.1" id="line1" xmlns="http://www.w3.org/2000/svg" xmlns:xlink="http://www.w3.org/1999/xlink" x="0px" y="0px"
	 viewBox="0 0 20 20" style="enable-background:new 0 0 20 20;" xml:space="preserve">
<style type="text/css">
	.st0{fill:#C4D7E5;stroke:#000000;stroke-width:0.75;stroke-miterlimit:10;}
	.st1{opacity:0.7;fill:#D5E5F9;enable-background:new    ;}
	.st2{fill:#B06328;stroke:#54290B;stroke-width:0.5;stroke-miterlimit:10;}
	.st3{fill:#A35425;}
	.st4{fill:#C97629;}
	.st5{fill:#85A9DD;}
</style>
<g>
	<rect x="11.273" y="10.894" transform="matrix(0.7687 -0.6396 0.6396 0.7687 -4.7656 10.3103)" width="1.2" height="1.7"/>
	<path class="st0" d="M8.2,0.5C4.8,0.2,1.8,2.7,1.5,6.1s2.2,6.4,5.6,6.7s6.4-2.2,6.7-5.6C14.1,3.8,11.6,0.8,8.2,0.5z M7.1,12.8
		c-3.4-0.3-5.9-3.3-5.6-6.7s3.3-5.9,6.7-5.6s5.9,3.3,5.6,6.7C13.5,10.6,10.4,13.1,7.1,12.8z"/>
	<ellipse class="st1" cx="7.65" cy="6.683" rx="5.9" ry="5.9"/>
	<g>
		<path class="st2" d="M18.5,18.2L18.5,18.2c-0.1,0.8-0.8,1.4-1.6,1.3l0,0c-0.4,0-0.8-0.2-1-0.6l-4.1-5.4c-0.1-0.2-0.1-0.4,0.1-0.6
			l1.2-1c0.2-0.1,0.4-0.1,0.6,0.1l4.6,5.1C18.4,17.4,18.6,17.8,18.5,18.2z"/>
		<path class="st3" d="M17.7,17.5l-0.1-0.1c0.1,0.2,0.2,0.4,0.1,0.6l0,0c0,0.3-0.5,0.4-0.6,0.2l-2.4-3c-0.1-0.2-0.4-0.2-0.5,0
			l-0.3,0.2l2.5,3.2c0.1,0.2,0.3,0.3,0.5,0.4c0.3,0,0.5,0,0.7-0.2c0.2-0.1,0.3-0.4,0.3-0.7C18,17.9,17.9,17.7,17.7,17.5z"/>
		<path class="st4" d="M14.1,14c0,0-0.1,0-0.1-0.1l-0.9-1.1c-0.1-0.1-0.1-0.2,0-0.3s0.2-0.1,0.3,0l0.9,1.1c0.1,0.1,0.1,0.2,0,0.3
			C14.3,14,14.2,14,14.1,14z"/>
	</g>
</g>
<g>
	<path class="st5" d="M6,3.5C5.5,4.1,5.2,4.7,5.1,5.2C4.9,5.8,4.9,6.3,5,6.8s0.3,0.9,0.5,1.4s0.5,1,1,1.7c-0.8,0.2-1.7-0.1-2.4-0.6
		C3.5,8.8,3.1,7.9,3,7c0-0.9,0.3-1.8,0.9-2.4C4.5,3.9,5.2,3.5,6,3.5z"/>
</g>
</svg>
